HIERARCHY
ROOT Hips
{
 OFFSET 0.000000 0.000000 0.000000
 CHANNELS 6 Xposition Yposition Zposition Yrotation Xrotation Zrotation
 JOINT Chest
 {
  OFFSET 0.000000 10.080317 -0.001081
  CHANNELS 3 Yrotation Xrotation Zrotation
  JOINT Chest2
  {
   OFFSET 0.000000 11.096852 0.001963
   CHANNELS 3 Yrotation Xrotation Zrotation
   JOINT Chest3
   {
    OFFSET 0.000000 10.026525 0.000000
    CHANNELS 3 Yrotation Xrotation Zrotation
    JOINT Chest4
    {
     OFFSET 0.000000 10.026525 0.000000
     CHANNELS 3 Yrotation Xrotation Zrotation
     JOINT Neck
     {
      OFFSET 0.000000 14.108171 0.000000
      CHANNELS 3 Yrotation Xrotation Zrotation
      JOINT Head
      {
       OFFSET 0.000000 9.333493 0.004668
       CHANNELS 3 Yrotation Xrotation Zrotation
       End Site
       {
        OFFSET 0.000000 17.851786 0.002438
       }
      }
     }
     JOINT RightCollar
     {
      OFFSET -3.071622 7.873185 0.000000
      CHANNELS 3 Yrotation Xrotation Zrotation
      JOINT RightShoulder
      {
       OFFSET -14.378659 0.000000 0.000000
       CHANNELS 3 Yrotation Xrotation Zrotation
       JOINT RightElbow
       {
        OFFSET -30.778728 0.000000 0.000000
        CHANNELS 3 Yrotation Xrotation Zrotation
        JOINT RightWrist
        {
         OFFSET -25.164217 0.000000 0.000000
         CHANNELS 3 Yrotation Xrotation Zrotation
         End Site
         {
          OFFSET -18.796788 0.000000 0.000000
         }
        }
       }
      }
     }
     JOINT LeftCollar
     {
      OFFSET 3.071622 7.873185 0.000000
      CHANNELS 3 Yrotation Xrotation Zrotation
      JOINT LeftShoulder
      {
       OFFSET 14.378659 0.000000 0.000000
       CHANNELS 3 Yrotation Xrotation Zrotation
       JOINT LeftElbow
       {
        OFFSET 30.778728 0.000000 0.000000
        CHANNELS 3 Yrotation Xrotation Zrotation
        JOINT LeftWrist
        {
         OFFSET 25.164217 0.000000 0.000000
         CHANNELS 3 Yrotation Xrotation Zrotation
         End Site
         {
          OFFSET 18.796788 0.000000 0.000000
         }
        }
       }
      }
     }
    }
   }
  }
 }
 JOINT RightHip
 {
  OFFSET -8.194923 0.005295 0.000540
  CHANNELS 3 Yrotation Xrotation Zrotation
  JOINT RightKnee
  {
   OFFSET 0.000000 -42.473320 -0.000511
   CHANNELS 3 Yrotation Xrotation Zrotation
   JOINT RightAnkle
   {
    OFFSET 0.000000 -41.474259 -0.000865
    CHANNELS 3 Yrotation Xrotation Zrotation
    JOINT RightToe
    {
     OFFSET 0.000000 -7.354994 16.712725
     CHANNELS 3 Yrotation Xrotation Zrotation
     End Site
     {
      OFFSET 0.000000 -1.553903 6.764158
     }
    }
   }
  }
 }
 JOINT LeftHip
 {
  OFFSET 8.194923 0.005295 0.000540
  CHANNELS 3 Yrotation Xrotation Zrotation
  JOINT LeftKnee
  {
   OFFSET 0.000000 -42.473320 -0.000511
   CHANNELS 3 Yrotation Xrotation Zrotation
   JOINT LeftAnkle
   {
    OFFSET 0.000000 -41.474259 -0.000865
    CHANNELS 3 Yrotation Xrotation Zrotation
    JOINT LeftToe
    {
     OFFSET 0.000000 -7.354994 16.712725
     CHANNELS 3 Yrotation Xrotation Zrotation
     End Site
     {
      OFFSET 0.000000 -1.553903 6.764158
     }
    }
   }
  }
 }
}
MOTION
Frames: 7
Frame Time: 0.016667
0.000000 91.111157 0.000000 0.000000 -5.826342 0.000000 0.000000 11.116423 0.000000 0.000000 -5.290081 0.000000 0.000000 0.000000 0.000000 0.000000 0.000000 0.000000 0.000000 12.665069 0.000000 0.000000 0.575450 0.000000 0.000000 0.000000 0.000000 0.000000 0.000000 0.000000 2.337306 0.000000 0.000000 -2.337306 0.000000 0.000000 0.000000 0.000000 0.000000 0.000000 0.000000 0.000000 -2.337306 0.000000 0.000000 2.337306 0.000000 0.000000 0.000000 8.578828 0.000000 0.000000 1.905768 0.000000 0.000000 -4.658254 0.000000 0.000000 0.000000 0.000000 0.000000 8.578828 0.000000 0.000000 1.905768 0.000000 0.000000 -4.658254 0.000000 0.000000 0.000000 0.000000
-293.212520 92.208678 -9.384868 0.899274 -0.166374 0.392359 0.463122 3.604266 0.100620 0.337423 1.617309 0.169729 0.337423 1.617309 0.169729 0.252601 1.213076 0.126396 -11.670942 17.484718 1.774956 -22.104769 -2.562220 7.122727 -2.446218 -3.646060 11.046118 1.877733 -3.659951 63.954992 21.143630 12.501921 10.784032 -3.411752 4.341306 -9.678212 -10.682285 -1.870112 -8.784208 -1.237348 -14.217497 -67.148222 -15.581415 18.371468 -16.161062 5.924334 5.273956 14.808611 -11.138820 7.479918 0.741259 -11.491643 2.829664 2.191733 -21.191038 -10.317472 1.099104 0.386004 0.372973 0.117634 4.413636 -9.185368 5.985402 -0.965948 14.408917 -3.538532 0.296715 -3.304161 -1.666898 -0.923677 0.088382 -0.420363
-293.257005 92.187663 -9.461509 0.923976 -0.102564 0.421313 0.449296 3.627647 0.101747 0.329474 1.633022 0.175988 0.329474 1.633022 0.175988 0.246619 1.224862 0.131102 -11.684407 17.461568 1.766631 -22.129934 -2.604161 7.115930 -2.425824 -3.599405 11.037990 1.906656 -3.627224 63.964361 21.110298 12.494228 10.755894 -3.406811 4.332555 -9.685985 -10.692091 -1.813972 -8.784660 -1.254353 -14.238319 -67.115294 -15.559622 18.351325 -16.189910 5.916470 5.262676 14.805039 -11.011331 7.245083 0.793849 -11.462305 3.080635 2.121484 -21.277636 -10.526442 1.128551 0.362965 0.398064 0.118606 4.271652 -9.413677 5.992896 -0.887737 14.637999 -3.557329 0.321829 -3.313151 -1.678947 -0.932166 0.048135 -0.418082
-293.284895 92.173594 -9.519022 0.960158 -0.038922 0.435296 0.436453 3.658767 0.112871 0.324878 1.648184 0.184298 0.324878 1.648184 0.184298 0.243144 1.236236 0.137337 -11.688033 17.456666 1.762329 -22.135860 -2.613424 7.110101 -2.426516 -3.574357 11.034990 1.922038 -3.586760 63.965783 21.058248 12.530448 10.731519 -3.412110 4.338141 -9.694096 -10.690036 -1.776661 -8.785693 -1.293125 -14.230321 -67.115472 -15.490246 18.326727 -16.139936 5.922644 5.265690 14.783222 -10.984745 7.071294 0.824554 -11.414325 3.247475 2.098585 -21.334114 -10.677626 1.132379 0.334423 0.396132 0.121728 4.154637 -9.623017 6.010907 -0.808304 14.847592 -3.579789 0.292781 -3.320455 -1.688272 -0.919944 0.011418 -0.406595
-293.294164 92.167385 -9.556478 0.991717 0.027095 0.429651 0.435170 3.682673 0.146886 0.323066 1.653376 0.193605 0.323066 1.653376 0.193605 0.241759 1.240135 0.144319 -11.699043 17.478603 1.755339 -22.150824 -2.572763 7.096740 -2.433324 -3.531247 11.026087 1.925493 -3.554733 63.958332 20.977000 12.565054 10.705036 -3.423292 4.341488 -9.697485 -10.692452 -1.742934 -8.787936 -1.304255 -14.187667 -67.144385 -15.366355 18.324716 -16.077407 5.918933 5.258524 14.787788 -10.996912 6.984505 0.849083 -11.457857 3.285000 2.139609 -21.260426 -10.778205 1.075985 0.316751 0.387891 0.130506 4.085256 -9.801038 6.034451 -0.761707 15.010068 -3.598755 0.238620 -3.326934 -1.690190 -0.891864 -0.011367 -0.395162
-293.303443 92.169686 -9.563288 1.028943 0.093734 0.404963 0.430416 3.714672 0.187844 0.323065 1.655871 0.200421 0.323065 1.655871 0.200421 0.241739 1.242010 0.149430 -11.707040 17.514207 1.756373 -22.161011 -2.505904 7.094579 -2.448931 -3.501375 11.023035 1.923372 -3.496425 63.969048 20.881800 12.599531 10.655029 -3.434487 4.333194 -9.695194 -10.703377 -1.715423 -8.771447 -1.299931 -14.139005 -67.185425 -15.199576 18.314860 -15.981914 5.919632 5.256587 14.785964 -11.085417 6.968847 0.847244 -11.486856 3.221061 2.230420 -21.175413 -10.799039 1.006216 0.318566 0.352654 0.139402 4.056174 -9.930110 6.067548 -0.776907 15.099500 -3.614502 0.202455 -3.321848 -1.699602 -0.859913 -0.021895 -0.381922
-293.312082 92.177293 -9.551046 1.058924 0.184920 0.373831 0.412372 3.737346 0.233603 0.322823 1.656319 0.209525 0.322823 1.656319 0.209525 0.241532 1.242351 0.156257 -11.699630 17.544681 1.761314 -22.144882 -2.450206 7.095740 -2.455210 -3.494863 11.020370 1.927985 -3.455429 63.997142 20.728350 12.641901 10.568061 -3.438218 4.347005 -9.687006 -10.664595 -1.701623 -8.757850 -1.296055 -14.063143 -67.247611 -15.028456 18.316237 -15.877626 5.914827 5.253566 14.770656 -11.223847 6.977483 0.852587 -11.449553 3.089543 2.347257 -21.091867 -10.748070 0.917211 0.327487 0.274190 0.141286 4.091464 -10.069008 6.094020 -0.851880 15.169983 -3.619434 0.155282 -3.306954 -1.720850 -0.814769 -0.036185 -0.365416
